<svg width="147" height="92" viewBox="0 0 147 92" fill="none" xmlns="http://www.w3.org/2000/svg">
<rect width="147" height="92" fill="white"/>
<rect x="27" y="32" width="35" height="24" fill="#FF4F5B"/>
<rect x="27" y="32" width="35" height="24" fill="#FF4F5B"/>
<g filter="url(#filter0_d_34_2)">
<path d="M31.5918 40.332V42.6389H35.3121V44.7833H31.5918V47.2851H35.7994V49.5107H28.8139V38.1064H35.7994V40.332H31.5918ZM37.1318 43.7923C37.1318 42.666 37.3755 41.6642 37.8629 40.7869C38.3502 39.8988 39.0271 39.2111 39.8936 38.7237C40.7708 38.2255 41.7618 37.9764 42.8665 37.9764C44.2203 37.9764 45.3791 38.3338 46.343 39.0486C47.3069 39.7634 47.9513 40.7382 48.2762 41.9728H45.2221C44.9946 41.4963 44.6697 41.1335 44.2474 40.8844C43.8358 40.6353 43.3647 40.5107 42.834 40.5107C41.9784 40.5107 41.2853 40.8086 40.7546 41.4042C40.2239 41.9999 39.9585 42.7959 39.9585 43.7923C39.9585 44.7887 40.2239 45.5847 40.7546 46.1804C41.2853 46.7761 41.9784 47.0739 42.834 47.0739C43.3647 47.0739 43.8358 46.9494 44.2474 46.7003C44.6697 46.4512 44.9946 46.0884 45.2221 45.6118H48.2762C47.9513 46.8465 47.3069 47.8212 46.343 48.536C45.3791 49.24 44.2203 49.592 42.8665 49.592C41.7618 49.592 40.7708 49.3483 39.8936 48.8609C39.0271 48.3627 38.3502 47.675 37.8629 46.7977C37.3755 45.9205 37.1318 44.9187 37.1318 43.7923Z" fill="#FCEFF0"/>
<path d="M55.371 49.6245C54.2988 49.6245 53.3132 49.3754 52.4143 48.8772C51.5262 48.379 50.8168 47.6858 50.2861 46.7977C49.7663 45.8988 49.5063 44.8916 49.5063 43.7761C49.5063 42.6606 49.7663 41.6587 50.2861 40.7707C50.8168 39.8826 51.5262 39.1894 52.4143 38.6912C53.3132 38.193 54.2988 37.9439 55.371 37.9439C56.4432 37.9439 57.4233 38.193 58.3114 38.6912C59.2103 39.1894 59.9143 39.8826 60.4233 40.7707C60.9432 41.6587 61.2031 42.6606 61.2031 43.7761C61.2031 44.8916 60.9432 45.8988 60.4233 46.7977C59.9035 47.6858 59.1995 48.379 58.3114 48.8772C57.4233 49.3754 56.4432 49.6245 55.371 49.6245ZM55.371 47.0902C56.2807 47.0902 57.0063 46.7869 57.5479 46.1804C58.1002 45.5739 58.3764 44.7725 58.3764 43.7761C58.3764 42.7689 58.1002 41.9674 57.5479 41.3717C57.0063 40.7652 56.2807 40.462 55.371 40.462C54.4504 40.462 53.7139 40.7598 53.1616 41.3555C52.6201 41.9512 52.3493 42.758 52.3493 43.7761C52.3493 44.7833 52.6201 45.5902 53.1616 46.1967C53.7139 46.7923 54.4504 47.0902 55.371 47.0902Z" fill="white"/>
<path d="M65.5266 47.3663H69.1656V49.5107H62.7486V38.1064H65.5266V47.3663ZM73.2686 38.1064V49.5107H70.4906V38.1064H73.2686ZM82.7059 38.1064V40.332H78.0597V42.7364H81.5363V44.897H78.0597V49.5107H75.2817V38.1064H82.7059ZM86.944 40.332V42.6389H90.6642V44.7833H86.944V47.2851H91.1516V49.5107H84.166V38.1064H91.1516V40.332H86.944Z" fill="black"/>
</g>
<defs>
<filter id="filter0_d_34_2" x="23.3184" y="33.1811" width="73.33" height="22.6718" filterUnits="userSpaceOnUse" color-interpolation-filters="sRGB">
<feFlood flood-opacity="0" result="BackgroundImageFix"/>
<feColorMatrix in="SourceAlpha" type="matrix" values="0 0 0 0 0 0 0 0 0 0 0 0 0 0 0 0 0 0 127 0" result="hardAlpha"/>
<feOffset dy="0.732807"/>
<feGaussianBlur stdDeviation="2.74803"/>
<feComposite in2="hardAlpha" operator="out"/>
<feColorMatrix type="matrix" values="0 0 0 0 0 0 0 0 0 0 0 0 0 0 0 0 0 0 0.25 0"/>
<feBlend mode="normal" in2="BackgroundImageFix" result="effect1_dropShadow_34_2"/>
<feBlend mode="normal" in="SourceGraphic" in2="effect1_dropShadow_34_2" result="shape"/>
</filter>
</defs>
</svg>
