<svg width="1920" height="1080" viewBox="0 0 1920 1080" fill="none" xmlns="http://www.w3.org/2000/svg">
<rect x="107" y="317" width="194.624" height="132.065" fill="#FF4F5B"/>
<rect x="107" y="317" width="194.624" height="132.065" fill="#FF4F5B"/>
<g filter="url(#filter0_d_15_28)">
<path d="M132.424 365.042V377.803H153.003V389.665H132.424V403.504H155.698V415.815H117.057V352.731H155.698V365.042H132.424ZM163.069 384.183C163.069 377.953 164.417 372.411 167.113 367.558C169.809 362.646 173.553 358.842 178.346 356.146C183.198 353.39 188.68 352.012 194.791 352.012C202.279 352.012 208.69 353.989 214.022 357.943C219.354 361.897 222.918 367.289 224.715 374.118H207.821C206.563 371.482 204.766 369.476 202.429 368.098C200.153 366.72 197.547 366.031 194.611 366.031C189.878 366.031 186.044 367.678 183.108 370.973C180.173 374.268 178.705 378.672 178.705 384.183C178.705 389.695 180.173 394.098 183.108 397.393C186.044 400.688 189.878 402.336 194.611 402.336C197.547 402.336 200.153 401.647 202.429 400.269C204.766 398.891 206.563 396.884 207.821 394.248H224.715C222.918 401.078 219.354 406.47 214.022 410.424C208.69 414.318 202.279 416.265 194.791 416.265C188.68 416.265 183.198 414.917 178.346 412.221C173.553 409.465 169.809 405.661 167.113 400.808C164.417 395.955 163.069 390.414 163.069 384.183Z" fill="#FCEFF0"/>
<path d="M263.961 416.444C258.03 416.444 252.578 415.067 247.606 412.311C242.693 409.555 238.769 405.721 235.833 400.808C232.958 395.836 231.52 390.264 231.52 384.093C231.52 377.923 232.958 372.381 235.833 367.469C238.769 362.556 242.693 358.722 247.606 355.966C252.578 353.21 258.03 351.832 263.961 351.832C269.892 351.832 275.314 353.21 280.226 355.966C285.199 358.722 289.093 362.556 291.909 367.469C294.784 372.381 296.222 377.923 296.222 384.093C296.222 390.264 294.784 395.836 291.909 400.808C289.033 405.721 285.139 409.555 280.226 412.311C275.314 415.067 269.892 416.444 263.961 416.444ZM263.961 402.426C268.993 402.426 273.007 400.748 276.003 397.393C279.058 394.038 280.586 389.605 280.586 384.093C280.586 378.522 279.058 374.089 276.003 370.794C273.007 367.439 268.993 365.761 263.961 365.761C258.869 365.761 254.795 367.409 251.739 370.704C248.744 373.999 247.246 378.462 247.246 384.093C247.246 389.665 248.744 394.128 251.739 397.483C254.795 400.778 258.869 402.426 263.961 402.426Z" fill="white"/>
<path d="M320.138 403.953H340.267V415.815H304.771V352.731H320.138V403.953ZM362.964 352.731V415.815H347.597V352.731H362.964ZM415.168 352.731V365.042H389.467V378.342H408.697V390.294H389.467V415.815H374.1V352.731H415.168ZM438.611 365.042V377.803H459.19V389.665H438.611V403.504H461.886V415.815H423.244V352.731H461.886V365.042H438.611Z" fill="#FF4F5B"/>
</g>
<g filter="url(#filter1_d_15_28)">
<path d="M146.406 548.479L140.096 539.995C138.226 540.369 136.403 540.556 134.626 540.556C129.999 540.556 125.745 539.481 121.865 537.33C118.032 535.18 114.97 532.188 112.68 528.355C110.436 524.475 109.314 520.128 109.314 515.313C109.314 510.499 110.436 506.175 112.68 502.342C114.97 498.509 118.032 495.517 121.865 493.367C125.745 491.216 129.999 490.141 134.626 490.141C139.254 490.141 143.485 491.216 147.318 493.367C151.198 495.517 154.236 498.509 156.433 502.342C158.677 506.175 159.799 510.499 159.799 515.313C159.799 519.52 158.934 523.377 157.204 526.883C155.521 530.342 153.161 533.217 150.122 535.507L160.921 548.479H146.406ZM121.584 515.313C121.584 519.661 122.753 523.143 125.09 525.761C127.474 528.332 130.653 529.617 134.626 529.617C138.553 529.617 141.685 528.309 144.022 525.691C146.406 523.073 147.598 519.614 147.598 515.313C147.598 510.966 146.406 507.507 144.022 504.936C141.685 502.318 138.553 501.009 134.626 501.009C130.653 501.009 127.474 502.295 125.09 504.866C122.753 507.437 121.584 510.919 121.584 515.313ZM205.241 500.939V540.065H193.251V534.736C192.035 536.466 190.376 537.868 188.272 538.943C186.216 539.971 183.925 540.486 181.401 540.486C178.409 540.486 175.768 539.831 173.478 538.522C171.187 537.167 169.411 535.227 168.149 532.703C166.887 530.178 166.255 527.21 166.255 523.798V500.939H178.176V522.185C178.176 524.803 178.853 526.836 180.209 528.285C181.565 529.734 183.388 530.459 185.678 530.459C188.015 530.459 189.862 529.734 191.217 528.285C192.573 526.836 193.251 524.803 193.251 522.185V500.939H205.241ZM211.469 520.432C211.469 516.412 212.217 512.883 213.713 509.844C215.256 506.806 217.336 504.469 219.954 502.832C222.571 501.196 225.493 500.378 228.718 500.378C231.476 500.378 233.884 500.939 235.94 502.061C238.044 503.183 239.657 504.655 240.779 506.479V500.939H252.769V540.065H240.779V534.526C239.61 536.349 237.974 537.821 235.87 538.943C233.814 540.065 231.406 540.626 228.648 540.626C225.47 540.626 222.571 539.808 219.954 538.172C217.336 536.489 215.256 534.128 213.713 531.09C212.217 528.005 211.469 524.452 211.469 520.432ZM240.779 520.502C240.779 517.51 239.937 515.15 238.254 513.42C236.618 511.691 234.608 510.826 232.224 510.826C229.84 510.826 227.807 511.691 226.124 513.42C224.488 515.103 223.67 517.44 223.67 520.432C223.67 523.424 224.488 525.808 226.124 527.584C227.807 529.314 229.84 530.178 232.224 530.178C234.608 530.178 236.618 529.314 238.254 527.584C239.937 525.854 240.779 523.494 240.779 520.502ZM273.433 488.178V540.065H261.443V488.178H273.433ZM288.152 496.872C286.049 496.872 284.319 496.265 282.964 495.049C281.655 493.787 281 492.245 281 490.422C281 488.552 281.655 487.009 282.964 485.794C284.319 484.532 286.049 483.901 288.152 483.901C290.209 483.901 291.892 484.532 293.201 485.794C294.557 487.009 295.234 488.552 295.234 490.422C295.234 492.245 294.557 493.787 293.201 495.049C291.892 496.265 290.209 496.872 288.152 496.872ZM294.112 500.939V540.065H282.122V500.939H294.112ZM324.608 529.898V540.065H318.508C314.161 540.065 310.772 539.013 308.341 536.91C305.91 534.759 304.695 531.277 304.695 526.462V510.896H299.927V500.939H304.695V491.403H316.685V500.939H324.538V510.896H316.685V526.602C316.685 527.771 316.965 528.612 317.526 529.127C318.087 529.641 319.022 529.898 320.331 529.898H324.608ZM371.254 500.939L346.713 558.646H333.811L342.786 538.733L326.869 500.939H340.262L349.307 525.41L358.282 500.939H371.254ZM408.259 540.626C404.426 540.626 400.966 539.808 397.881 538.172C394.843 536.536 392.435 534.198 390.659 531.16C388.929 528.122 388.065 524.569 388.065 520.502C388.065 516.482 388.953 512.953 390.729 509.914C392.505 506.829 394.936 504.469 398.021 502.832C401.107 501.196 404.566 500.378 408.399 500.378C412.232 500.378 415.691 501.196 418.776 502.832C421.861 504.469 424.292 506.829 426.069 509.914C427.845 512.953 428.733 516.482 428.733 520.502C428.733 524.522 427.821 528.075 425.998 531.16C424.222 534.198 421.768 536.536 418.636 538.172C415.551 539.808 412.092 540.626 408.259 540.626ZM408.259 530.248C410.549 530.248 412.489 529.407 414.078 527.724C415.714 526.041 416.533 523.634 416.533 520.502C416.533 517.37 415.738 514.963 414.148 513.28C412.606 511.597 410.689 510.756 408.399 510.756C406.062 510.756 404.122 511.597 402.579 513.28C401.036 514.916 400.265 517.323 400.265 520.502C400.265 523.634 401.013 526.041 402.509 527.724C404.052 529.407 405.968 530.248 408.259 530.248ZM454.727 510.896H448.276V540.065H436.286V510.896H431.939V500.939H436.286V499.817C436.286 495.003 437.665 491.356 440.423 488.879C443.181 486.355 447.224 485.093 452.553 485.093C453.441 485.093 454.096 485.116 454.517 485.163V495.33C452.226 495.19 450.613 495.517 449.678 496.311C448.744 497.106 448.276 498.532 448.276 500.589V500.939H454.727V510.896ZM487.21 530.809H502.916V540.065H475.22V490.842H487.21V530.809ZM514.666 496.872C512.562 496.872 510.832 496.265 509.477 495.049C508.168 493.787 507.514 492.245 507.514 490.422C507.514 488.552 508.168 487.009 509.477 485.794C510.832 484.532 512.562 483.901 514.666 483.901C516.722 483.901 518.405 484.532 519.714 485.794C521.07 487.009 521.747 488.552 521.747 490.422C521.747 492.245 521.07 493.787 519.714 495.049C518.405 496.265 516.722 496.872 514.666 496.872ZM520.626 500.939V540.065H508.635V500.939H520.626ZM548.948 510.896H542.497V540.065H530.507V510.896H526.159V500.939H530.507V499.817C530.507 495.003 531.886 491.356 534.644 488.879C537.402 486.355 541.445 485.093 546.774 485.093C547.662 485.093 548.317 485.116 548.737 485.163V495.33C546.447 495.19 544.834 495.517 543.899 496.311C542.964 497.106 542.497 498.532 542.497 500.589V500.939H548.948V510.896ZM591.464 519.871C591.464 520.993 591.393 522.162 591.253 523.377H564.118C564.305 525.808 565.076 527.677 566.432 528.986C567.834 530.248 569.54 530.88 571.55 530.88C574.542 530.88 576.622 529.617 577.791 527.093H590.552C589.898 529.664 588.706 531.978 586.976 534.035C585.293 536.092 583.166 537.704 580.595 538.873C578.024 540.042 575.15 540.626 571.971 540.626C568.138 540.626 564.725 539.808 561.734 538.172C558.742 536.536 556.405 534.198 554.722 531.16C553.039 528.122 552.198 524.569 552.198 520.502C552.198 516.435 553.016 512.883 554.652 509.844C556.335 506.806 558.672 504.469 561.664 502.832C564.655 501.196 568.091 500.378 571.971 500.378C575.757 500.378 579.123 501.173 582.068 502.762C585.013 504.352 587.303 506.619 588.939 509.564C590.622 512.509 591.464 515.944 591.464 519.871ZM579.193 516.716C579.193 514.659 578.492 513.023 577.089 511.807C575.687 510.592 573.934 509.984 571.831 509.984C569.821 509.984 568.114 510.569 566.712 511.737C565.356 512.906 564.515 514.565 564.188 516.716H579.193ZM630.458 540.556C626.858 540.556 623.633 539.971 620.782 538.803C617.93 537.634 615.64 535.905 613.91 533.614C612.227 531.324 611.339 528.566 611.246 525.34H624.007C624.194 527.163 624.825 528.566 625.9 529.547C626.975 530.482 628.378 530.95 630.107 530.95C631.884 530.95 633.286 530.552 634.314 529.758C635.343 528.916 635.857 527.771 635.857 526.322C635.857 525.106 635.436 524.101 634.595 523.307C633.8 522.512 632.795 521.858 631.58 521.344C630.411 520.829 628.728 520.245 626.531 519.591C623.353 518.609 620.758 517.627 618.748 516.646C616.738 515.664 615.009 514.215 613.559 512.298C612.11 510.382 611.386 507.881 611.386 504.796C611.386 500.215 613.045 496.639 616.364 494.068C619.683 491.45 624.007 490.141 629.336 490.141C634.758 490.141 639.129 491.45 642.448 494.068C645.767 496.639 647.543 500.238 647.777 504.866H634.805C634.712 503.277 634.127 502.038 633.052 501.15C631.977 500.215 630.598 499.747 628.915 499.747C627.466 499.747 626.298 500.145 625.409 500.939C624.521 501.687 624.077 502.786 624.077 504.235C624.077 505.824 624.825 507.063 626.321 507.951C627.817 508.839 630.154 509.797 633.333 510.826C636.511 511.901 639.082 512.929 641.046 513.911C643.056 514.893 644.785 516.318 646.234 518.188C647.683 520.058 648.408 522.465 648.408 525.41C648.408 528.215 647.683 530.763 646.234 533.053C644.832 535.344 642.775 537.167 640.064 538.522C637.353 539.878 634.151 540.556 630.458 540.556ZM677.593 529.898V540.065H671.493C667.146 540.065 663.757 539.013 661.326 536.91C658.895 534.759 657.68 531.277 657.68 526.462V510.896H652.912V500.939H657.68V491.403H669.67V500.939H677.523V510.896H669.67V526.602C669.67 527.771 669.951 528.612 670.511 529.127C671.072 529.641 672.007 529.898 673.316 529.898H677.593ZM681.888 520.432C681.888 516.412 682.636 512.883 684.132 509.844C685.674 506.806 687.755 504.469 690.372 502.832C692.99 501.196 695.912 500.378 699.137 500.378C701.895 500.378 704.302 500.939 706.359 502.061C708.463 503.183 710.075 504.655 711.197 506.479V500.939H723.187V540.065H711.197V534.526C710.029 536.349 708.393 537.821 706.289 538.943C704.232 540.065 701.825 540.626 699.067 540.626C695.888 540.626 692.99 539.808 690.372 538.172C687.755 536.489 685.674 534.128 684.132 531.09C682.636 528.005 681.888 524.452 681.888 520.432ZM711.197 520.502C711.197 517.51 710.356 515.15 708.673 513.42C707.037 511.691 705.027 510.826 702.643 510.826C700.259 510.826 698.226 511.691 696.543 513.42C694.907 515.103 694.089 517.44 694.089 520.432C694.089 523.424 694.907 525.808 696.543 527.584C698.226 529.314 700.259 530.178 702.643 530.178C705.027 530.178 707.037 529.314 708.673 527.584C710.356 525.854 711.197 523.494 711.197 520.502ZM743.852 507.46C745.254 505.31 747.007 503.627 749.111 502.412C751.214 501.15 753.552 500.519 756.122 500.519V513.21H752.827C749.835 513.21 747.592 513.864 746.096 515.173C744.6 516.435 743.852 518.679 743.852 521.904V540.065H731.862V500.939H743.852V507.46ZM783.66 529.898V540.065H777.56C773.213 540.065 769.824 539.013 767.393 536.91C764.962 534.759 763.747 531.277 763.747 526.462V510.896H758.979V500.939H763.747V491.403H775.737V500.939H783.59V510.896H775.737V526.602C775.737 527.771 776.017 528.612 776.578 529.127C777.139 529.641 778.074 529.898 779.383 529.898H783.66ZM806.256 540.626C802.843 540.626 799.805 540.042 797.14 538.873C794.476 537.704 792.372 536.115 790.83 534.105C789.287 532.048 788.422 529.758 788.235 527.233H800.085C800.225 528.589 800.856 529.688 801.978 530.529C803.1 531.37 804.479 531.791 806.115 531.791C807.611 531.791 808.756 531.511 809.551 530.95C810.392 530.342 810.813 529.571 810.813 528.636C810.813 527.514 810.229 526.696 809.06 526.182C807.892 525.621 805.998 525.013 803.381 524.359C800.576 523.704 798.239 523.026 796.369 522.325C794.499 521.577 792.886 520.432 791.531 518.889C790.175 517.3 789.497 515.173 789.497 512.509C789.497 510.265 790.105 508.231 791.32 506.408C792.583 504.539 794.406 503.066 796.79 501.991C799.22 500.916 802.095 500.378 805.414 500.378C810.322 500.378 814.179 501.594 816.984 504.024C819.835 506.455 821.471 509.681 821.892 513.701H810.813C810.626 512.345 810.019 511.27 808.99 510.475C808.008 509.681 806.7 509.283 805.064 509.283C803.661 509.283 802.586 509.564 801.838 510.125C801.09 510.639 800.716 511.363 800.716 512.298C800.716 513.42 801.301 514.262 802.469 514.823C803.685 515.384 805.554 515.944 808.079 516.505C810.977 517.253 813.337 518.001 815.16 518.749C816.984 519.45 818.573 520.619 819.928 522.255C821.331 523.844 822.055 525.995 822.102 528.706C822.102 530.996 821.448 533.053 820.139 534.876C818.877 536.653 817.03 538.055 814.6 539.083C812.216 540.112 809.434 540.626 806.256 540.626ZM167.512 584.939L156.924 624.065H143.672L137.501 598.682L131.12 624.065H117.938L107.28 584.939H119.271L124.81 612.916L131.401 584.939H144.092L150.753 612.776L156.223 584.939H167.512ZM178.114 580.872C176.011 580.872 174.281 580.265 172.925 579.049C171.617 577.787 170.962 576.245 170.962 574.422C170.962 572.552 171.617 571.009 172.925 569.794C174.281 568.532 176.011 567.901 178.114 567.901C180.171 567.901 181.854 568.532 183.163 569.794C184.518 571.009 185.196 572.552 185.196 574.422C185.196 576.245 184.518 577.787 183.163 579.049C181.854 580.265 180.171 580.872 178.114 580.872ZM184.074 584.939V624.065H172.084V584.939H184.074ZM214.57 613.898V624.065H208.47C204.122 624.065 200.733 623.013 198.303 620.91C195.872 618.759 194.656 615.277 194.656 610.462V594.896H189.888V584.939H194.656V575.403H206.647V584.939H214.5V594.896H206.647V610.602C206.647 611.771 206.927 612.612 207.488 613.127C208.049 613.641 208.984 613.898 210.293 613.898H214.57ZM245.299 584.519C249.787 584.519 253.386 586.014 256.097 589.006C258.808 591.951 260.164 596.018 260.164 601.207V624.065H248.244V602.819C248.244 600.202 247.566 598.168 246.211 596.719C244.855 595.27 243.032 594.545 240.741 594.545C238.451 594.545 236.628 595.27 235.272 596.719C233.917 598.168 233.239 600.202 233.239 602.819V624.065H221.249V572.178H233.239V590.198C234.454 588.469 236.114 587.09 238.217 586.061C240.321 585.033 242.681 584.519 245.299 584.519ZM325.986 574.842V624.065H313.996V603.801H295.345V624.065H283.355V574.842H295.345V594.125H313.996V574.842H325.986ZM371.524 603.871C371.524 604.993 371.454 606.162 371.314 607.377H344.178C344.365 609.808 345.136 611.677 346.492 612.986C347.894 614.248 349.601 614.88 351.611 614.88C354.602 614.88 356.682 613.617 357.851 611.093H370.613C369.958 613.664 368.766 615.978 367.037 618.035C365.354 620.092 363.227 621.704 360.656 622.873C358.085 624.042 355.21 624.626 352.031 624.626C348.198 624.626 344.786 623.808 341.794 622.172C338.802 620.536 336.465 618.198 334.782 615.16C333.1 612.122 332.258 608.569 332.258 604.502C332.258 600.435 333.076 596.883 334.712 593.844C336.395 590.806 338.732 588.469 341.724 586.832C344.716 585.196 348.151 584.378 352.031 584.378C355.818 584.378 359.183 585.173 362.128 586.762C365.073 588.352 367.364 590.619 369 593.564C370.683 596.509 371.524 599.944 371.524 603.871ZM359.253 600.716C359.253 598.659 358.552 597.023 357.15 595.807C355.748 594.592 353.995 593.984 351.891 593.984C349.881 593.984 348.175 594.569 346.772 595.737C345.417 596.906 344.575 598.565 344.248 600.716H359.253ZM375.465 604.432C375.465 600.412 376.213 596.883 377.709 593.844C379.252 590.806 381.332 588.469 383.95 586.832C386.567 585.196 389.489 584.378 392.714 584.378C395.472 584.378 397.88 584.939 399.936 586.061C402.04 587.183 403.653 588.655 404.775 590.479V584.939H416.765V624.065H404.775V618.526C403.606 620.349 401.97 621.821 399.866 622.943C397.81 624.065 395.402 624.626 392.644 624.626C389.466 624.626 386.567 623.808 383.95 622.172C381.332 620.489 379.252 618.128 377.709 615.09C376.213 612.005 375.465 608.452 375.465 604.432ZM404.775 604.502C404.775 601.51 403.933 599.15 402.25 597.42C400.614 595.691 398.604 594.826 396.22 594.826C393.836 594.826 391.803 595.691 390.12 597.42C388.484 599.103 387.666 601.44 387.666 604.432C387.666 607.424 388.484 609.808 390.12 611.584C391.803 613.314 393.836 614.178 396.22 614.178C398.604 614.178 400.614 613.314 402.25 611.584C403.933 609.854 404.775 607.494 404.775 604.502ZM437.429 572.178V624.065H425.439V572.178H437.429ZM467.925 613.898V624.065H461.825C457.477 624.065 454.088 623.013 451.658 620.91C449.227 618.759 448.012 615.277 448.012 610.462V594.896H443.243V584.939H448.012V575.403H460.002V584.939H467.855V594.896H460.002V610.602C460.002 611.771 460.282 612.612 460.843 613.127C461.404 613.641 462.339 613.898 463.648 613.898H467.925ZM498.654 584.519C503.142 584.519 506.741 586.014 509.452 589.006C512.163 591.951 513.519 596.018 513.519 601.207V624.065H501.599V602.819C501.599 600.202 500.921 598.168 499.566 596.719C498.21 595.27 496.387 594.545 494.096 594.545C491.806 594.545 489.983 595.27 488.627 596.719C487.272 598.168 486.594 600.202 486.594 602.819V624.065H474.604V572.178H486.594V590.198C487.809 588.469 489.469 587.09 491.572 586.061C493.676 585.033 496.036 584.519 498.654 584.519Z" fill="#FF4F5B"/>
</g>
<defs>
<filter id="filter0_d_15_28" x="86.6545" y="325.484" width="405.633" height="125.417" filterUnits="userSpaceOnUse" color-interpolation-filters="sRGB">
<feFlood flood-opacity="0" result="BackgroundImageFix"/>
<feColorMatrix in="SourceAlpha" type="matrix" values="0 0 0 0 0 0 0 0 0 0 0 0 0 0 0 0 0 0 127 0" result="hardAlpha"/>
<feOffset dy="4.05362"/>
<feGaussianBlur stdDeviation="15.2011"/>
<feComposite in2="hardAlpha" operator="out"/>
<feColorMatrix type="matrix" values="0 0 0 0 0 0 0 0 0 0 0 0 0 0 0 0 0 0 0.25 0"/>
<feBlend mode="normal" in2="BackgroundImageFix" result="effect1_dropShadow_15_28"/>
<feBlend mode="normal" in="SourceGraphic" in2="effect1_dropShadow_15_28" result="shape"/>
</filter>
<filter id="filter1_d_15_28" x="83.5586" y="463.342" width="762.266" height="188.168" filterUnits="userSpaceOnUse" color-interpolation-filters="sRGB">
<feFlood flood-opacity="0" result="BackgroundImageFix"/>
<feColorMatrix in="SourceAlpha" type="matrix" values="0 0 0 0 0 0 0 0 0 0 0 0 0 0 0 0 0 0 127 0" result="hardAlpha"/>
<feOffset dy="3.16289"/>
<feGaussianBlur stdDeviation="11.8608"/>
<feComposite in2="hardAlpha" operator="out"/>
<feColorMatrix type="matrix" values="0 0 0 0 0 0 0 0 0 0 0 0 0 0 0 0 0 0 0.25 0"/>
<feBlend mode="normal" in2="BackgroundImageFix" result="effect1_dropShadow_15_28"/>
<feBlend mode="normal" in="SourceGraphic" in2="effect1_dropShadow_15_28" result="shape"/>
</filter>
</defs>
</svg>
