<svg width="88" height="46" viewBox="0 0 88 46" fill="none" xmlns="http://www.w3.org/2000/svg">
<rect x="9" y="14" width="35" height="24" fill="#FF4F5B"/>
<rect x="9" y="14" width="35" height="24" fill="#FF4F5B"/>
<g filter="url(#filter0_d_34_2)">
<path d="M13.5918 22.332V24.6389H17.3121V26.7833H13.5918V29.2851H17.7994V31.5107H10.8139V20.1064H17.7994V22.332H13.5918ZM19.1318 25.7923C19.1318 24.666 19.3755 23.6642 19.8629 22.7869C20.3502 21.8988 21.0271 21.2111 21.8936 20.7237C22.7708 20.2255 23.7618 19.9764 24.8665 19.9764C26.2203 19.9764 27.3791 20.3338 28.343 21.0486C29.3069 21.7634 29.9513 22.7382 30.2762 23.9728H27.2221C26.9946 23.4963 26.6697 23.1335 26.2474 22.8844C25.8358 22.6353 25.3647 22.5107 24.834 22.5107C23.9784 22.5107 23.2853 22.8086 22.7546 23.4042C22.2239 23.9999 21.9585 24.7959 21.9585 25.7923C21.9585 26.7887 22.2239 27.5847 22.7546 28.1804C23.2853 28.7761 23.9784 29.0739 24.834 29.0739C25.3647 29.0739 25.8358 28.9494 26.2474 28.7003C26.6697 28.4512 26.9946 28.0884 27.2221 27.6118H30.2762C29.9513 28.8465 29.3069 29.8212 28.343 30.536C27.3791 31.24 26.2203 31.592 24.8665 31.592C23.7618 31.592 22.7708 31.3483 21.8936 30.8609C21.0271 30.3627 20.3502 29.675 19.8629 28.7977C19.3755 27.9205 19.1318 26.9187 19.1318 25.7923Z" fill="#FCEFF0"/>
<path d="M37.371 31.6245C36.2988 31.6245 35.3132 31.3754 34.4143 30.8772C33.5262 30.379 32.8168 29.6858 32.2861 28.7977C31.7663 27.8988 31.5063 26.8916 31.5063 25.7761C31.5063 24.6606 31.7663 23.6587 32.2861 22.7707C32.8168 21.8826 33.5262 21.1894 34.4143 20.6912C35.3132 20.193 36.2988 19.9439 37.371 19.9439C38.4432 19.9439 39.4233 20.193 40.3114 20.6912C41.2103 21.1894 41.9143 21.8826 42.4233 22.7707C42.9432 23.6587 43.2031 24.6606 43.2031 25.7761C43.2031 26.8916 42.9432 27.8988 42.4233 28.7977C41.9035 29.6858 41.1995 30.379 40.3114 30.8772C39.4233 31.3754 38.4432 31.6245 37.371 31.6245ZM37.371 29.0902C38.2807 29.0902 39.0063 28.7869 39.5479 28.1804C40.1002 27.5739 40.3764 26.7725 40.3764 25.7761C40.3764 24.7689 40.1002 23.9674 39.5479 23.3717C39.0063 22.7652 38.2807 22.462 37.371 22.462C36.4504 22.462 35.7139 22.7598 35.1616 23.3555C34.6201 23.9512 34.3493 24.758 34.3493 25.7761C34.3493 26.7833 34.6201 27.5902 35.1616 28.1967C35.7139 28.7923 36.4504 29.0902 37.371 29.0902Z" fill="white"/>
<path d="M47.5266 29.3663H51.1656V31.5107H44.7486V20.1064H47.5266V29.3663ZM55.2686 20.1064V31.5107H52.4906V20.1064H55.2686ZM64.7059 20.1064V22.332H60.0597V24.7364H63.5363V26.897H60.0597V31.5107H57.2817V20.1064H64.7059ZM68.944 22.332V24.6389H72.6642V26.7833H68.944V29.2851H73.1516V31.5107H66.166V20.1064H73.1516V22.332H68.944Z" fill="black"/>
</g>
<defs>
<filter id="filter0_d_34_2" x="5.3184" y="15.1811" width="73.33" height="22.6718" filterUnits="userSpaceOnUse" color-interpolation-filters="sRGB">
<feFlood flood-opacity="0" result="BackgroundImageFix"/>
<feColorMatrix in="SourceAlpha" type="matrix" values="0 0 0 0 0 0 0 0 0 0 0 0 0 0 0 0 0 0 127 0" result="hardAlpha"/>
<feOffset dy="0.732807"/>
<feGaussianBlur stdDeviation="2.74803"/>
<feComposite in2="hardAlpha" operator="out"/>
<feColorMatrix type="matrix" values="0 0 0 0 0 0 0 0 0 0 0 0 0 0 0 0 0 0 0.25 0"/>
<feBlend mode="normal" in2="BackgroundImageFix" result="effect1_dropShadow_34_2"/>
<feBlend mode="normal" in="SourceGraphic" in2="effect1_dropShadow_34_2" result="shape"/>
</filter>
</defs>
</svg>
