<svg width="74" height="24" viewBox="0 0 74 24" fill="none" xmlns="http://www.w3.org/2000/svg">
<rect x="4" width="35" height="24" fill="#FF4F5B"/>
<rect x="4" width="35" height="24" fill="#FF4F5B"/>
<g filter="url(#filter0_d_38_10)">
<path d="M8.59184 8.33203V10.6389H12.3121V12.7833H8.59184V15.2851H12.7994V17.5107H5.81386V6.10639H12.7994V8.33203H8.59184ZM14.1318 11.7923C14.1318 10.666 14.3755 9.66416 14.8629 8.7869C15.3502 7.89882 16.0271 7.21109 16.8936 6.72372C17.7708 6.22553 18.7618 5.97643 19.8665 5.97643C21.2203 5.97643 22.3791 6.33383 23.343 7.04863C24.3069 7.76344 24.9513 8.73817 25.2762 9.97283H22.2221C21.9946 9.49629 21.6697 9.13347 21.2474 8.88438C20.8358 8.63528 20.3647 8.51073 19.834 8.51073C18.9784 8.51073 18.2853 8.80856 17.7546 9.40423C17.2239 9.9999 16.9585 10.7959 16.9585 11.7923C16.9585 12.7887 17.2239 13.5847 17.7546 14.1804C18.2853 14.7761 18.9784 15.0739 19.834 15.0739C20.3647 15.0739 20.8358 14.9494 21.2474 14.7003C21.6697 14.4512 21.9946 14.0884 22.2221 13.6118H25.2762C24.9513 14.8465 24.3069 15.8212 23.343 16.536C22.3791 17.24 21.2203 17.592 19.8665 17.592C18.7618 17.592 17.7708 17.3483 16.8936 16.8609C16.0271 16.3627 15.3502 15.675 14.8629 14.7977C14.3755 13.9205 14.1318 12.9187 14.1318 11.7923Z" fill="#FCEFF0"/>
<path d="M32.371 17.6245C31.2988 17.6245 30.3132 17.3754 29.4143 16.8772C28.5262 16.379 27.8168 15.6858 27.2861 14.7977C26.7663 13.8988 26.5063 12.8916 26.5063 11.7761C26.5063 10.6606 26.7663 9.65875 27.2861 8.77066C27.8168 7.88257 28.5262 7.18943 29.4143 6.69123C30.3132 6.19304 31.2988 5.94394 32.371 5.94394C33.4432 5.94394 34.4233 6.19304 35.3114 6.69123C36.2103 7.18943 36.9143 7.88257 37.4233 8.77066C37.9432 9.65875 38.2031 10.6606 38.2031 11.7761C38.2031 12.8916 37.9432 13.8988 37.4233 14.7977C36.9035 15.6858 36.1995 16.379 35.3114 16.8772C34.4233 17.3754 33.4432 17.6245 32.371 17.6245ZM32.371 15.0902C33.2807 15.0902 34.0063 14.7869 34.5479 14.1804C35.1002 13.5739 35.3764 12.7725 35.3764 11.7761C35.3764 10.7689 35.1002 9.96741 34.5479 9.37174C34.0063 8.76524 33.2807 8.46199 32.371 8.46199C31.4504 8.46199 30.7139 8.75983 30.1616 9.3555C29.6201 9.95116 29.3493 10.758 29.3493 11.7761C29.3493 12.7833 29.6201 13.5902 30.1616 14.1967C30.7139 14.7923 31.4504 15.0902 32.371 15.0902Z" fill="white"/>
<path d="M42.5266 15.3663H46.1656V17.5107H39.7486V6.10639H42.5266V15.3663ZM50.2686 6.10639V17.5107H47.4906V6.10639H50.2686ZM59.7059 6.10639V8.33203H55.0597V10.7364H58.5363V12.897H55.0597V17.5107H52.2817V6.10639H59.7059ZM63.944 8.33203V10.6389H67.6642V12.7833H63.944V15.2851H68.1516V17.5107H61.166V6.10639H68.1516V8.33203H63.944Z" fill="black"/>
</g>
<defs>
<filter id="filter0_d_38_10" x="0.318398" y="1.18109" width="73.33" height="22.6718" filterUnits="userSpaceOnUse" color-interpolation-filters="sRGB">
<feFlood flood-opacity="0" result="BackgroundImageFix"/>
<feColorMatrix in="SourceAlpha" type="matrix" values="0 0 0 0 0 0 0 0 0 0 0 0 0 0 0 0 0 0 127 0" result="hardAlpha"/>
<feOffset dy="0.732807"/>
<feGaussianBlur stdDeviation="2.74803"/>
<feComposite in2="hardAlpha" operator="out"/>
<feColorMatrix type="matrix" values="0 0 0 0 0 0 0 0 0 0 0 0 0 0 0 0 0 0 0.25 0"/>
<feBlend mode="normal" in2="BackgroundImageFix" result="effect1_dropShadow_38_10"/>
<feBlend mode="normal" in="SourceGraphic" in2="effect1_dropShadow_38_10" result="shape"/>
</filter>
</defs>
</svg>
